<svg xmlns="http://www.w3.org/2000/svg" viewBox="0 0 100 100" width="120" height="120">
    <g transform="translate(10, 20)">
        <path d="M5 65h80c3 0 5 2 5 5v15c0 3-2 5-5 5H5c-3 0-5-2-5-5V70c0-3 2-5 5-5z" fill="#2563EB" />
        <path d="M5 65v20c-3 0-5-2-5-5V70c0-3 2-5 5-5z" fill="#1E40AF" />
        <path d="M85 68v14c0 2-1 3-3 3H10c0-1 0-2 0-3v-11c0-1 0-2 0-3h72c2 0 3 1 3 3z" fill="#DBEAFE" />
        <path d="M10 40h70c3 0 5 2 5 5v15c0 3-2 5-5 5H10c-3 0-5-2-5-5V45c0-3 2-5 5-5z" fill="#EA580C" />
        <path d="M10 40v20c-3 0-5-2-5-5V45c0-3 2-5 5-5z" fill="#9A3412" />
        <path d="M75 43v14c0 2-1 3-3 3H15c0-1 0-2 0-3v-11c0-1 0-2 0-3h57c2 0 3 1 3 3z" fill="#FFEDD5" />
        <path d="M15 15h60c3 0 5 2 5 5v15c0 3-2 5-5 5H15c-3 0-5-2-5-5V20c0-3 2-5 5-5z" fill="#16A34A" />
        <path d="M15 15v20c-3 0-5-2-5-5V20c0-3 2-5 5-5z" fill="#14532D" />
        <path d="M65 18v14c0 2-1 3-3 3H20c0-1 0-2 0-3v-11c0-1 0-2 0-3h42c2 0 3 1 3 3z" fill="#DCFCE7" />
    </g>
</svg>