<svg xmlns="http://www.w3.org/2000/svg" viewBox="0 0 120 80" width="120" height="80">
    <g transform="translate(10,15)">
        <path d="M10 65h20v-25c0-5-5-10-10-10s-10 5-10 10v25z" fill="#4B5563" />
        <circle cx="20" cy="25" r="8" fill="#D97706" />
        <path d="M20 14l-12 6 12 6 12-6z" fill="#1F2937" />
        <path d="M32 20v8" stroke="#F59E0B" stroke-width="2" />
    </g>

    <g transform="translate(70,15)">
        <path d="M10 65h20v-25c0-5-5-10-10-10s-10 5-10 10v25z" fill="#4B5563" />
        <circle cx="20" cy="25" r="8" fill="#8D5524" />
        <path d="M20 14l-12 6 12 6 12-6z" fill="#1F2937" />
    </g>

    <g transform="translate(35,5)">
        <path d="M10 75h30v-30c0-8-7-15-15-15s-15 7-15 15v30z" fill="#2563EB" />
        <circle cx="25" cy="25" r="10" fill="#FCD34D" />
        <path d="M25 12l-15 7 15 7 15-7z" fill="#1E40AF" />
        <path d="M40 19v10" stroke="#F59E0B" stroke-width="2" />
        <rect x="15" y="45" width="20" height="6" rx="3" fill="#FEF3C7" transform="rotate(-15 15 45)" />
    </g>
</svg>